<svg xmlns="http://www.w3.org/2000/svg" viewBox="0 0 760 450" width="760" height="450" role="img" aria-label="実際に起動した「時刻の分」の分布">
<style>
  .bg{fill:#fcfcfb}.ink{fill:#0b0b0b}.ink2{fill:#52514e}.bar{fill:#2a78d6}
  .grid{stroke:#e5e4e0;stroke-width:1}.axis{stroke:#c9c8c3;stroke-width:1}
  text{font-family:-apple-system,BlinkMacSystemFont,"Hiragino Sans","Noto Sans JP",sans-serif}
  .t{font-size:17px;font-weight:600}.st{font-size:12.5px}.lb{font-size:11.5px}.vl{font-size:11px;font-weight:600}
  @media (prefers-color-scheme:dark){
    .bg{fill:#1a1a19}.ink{fill:#fff}.ink2{fill:#c3c2b7}.bar{fill:#3987e5}
    .grid{stroke:#333230}.axis{stroke:#4a4945}
  }
</style><rect class="bg" width="760" height="450"/><text class="t ink" x="34" y="30">実際に起動した「時刻の分」の分布</text><text class="st ink2" x="34" y="53">cron は毎時 23 分を指定。実行 358 件の起動分をそのまま集計（推定を含まない）</text><line class="grid" x1="62" y1="370.0" x2="738" y2="370.0"/><text class="lb ink2" x="53" y="374.0" text-anchor="end">0</text><line class="grid" x1="62" y1="301.0" x2="738" y2="301.0"/><text class="lb ink2" x="53" y="305.0" text-anchor="end">20</text><line class="grid" x1="62" y1="232.0" x2="738" y2="232.0"/><text class="lb ink2" x="53" y="236.0" text-anchor="end">40</text><line class="grid" x1="62" y1="163.0" x2="738" y2="163.0"/><text class="lb ink2" x="53" y="167.0" text-anchor="end">60</text><line class="grid" x1="62" y1="94.0" x2="738" y2="94.0"/><text class="lb ink2" x="53" y="98.0" text-anchor="end">80</text><path class="bar" d="M64.0 370.0 L64.0 273.9 Q64.0 269.9 68.0 269.9 L112.3 269.9 Q116.3 269.9 116.3 273.9 L116.3 370.0 Z"/><text class="vl ink" x="90.2" y="262.9" text-anchor="middle">29</text><text class="lb ink2" x="90.2" y="389" text-anchor="middle">:00</text><path class="bar" d="M120.3 370.0 L120.3 142.8 Q120.3 138.8 124.3 138.8 L168.7 138.8 Q172.7 138.8 172.7 142.8 L172.7 370.0 Z"/><text class="vl ink" x="146.5" y="131.8" text-anchor="middle">67</text><text class="lb ink2" x="146.5" y="389" text-anchor="middle">:05</text><path class="bar" d="M176.7 370.0 L176.7 342.9 Q176.7 338.9 180.7 338.9 L225.0 338.9 Q229.0 338.9 229.0 342.9 L229.0 370.0 Z"/><text class="vl ink" x="202.8" y="331.9" text-anchor="middle">9</text><text class="lb ink2" x="202.8" y="389" text-anchor="middle">:10</text><path class="bar" d="M233.0 370.0 L233.0 339.5 Q233.0 335.5 237.0 335.5 L281.3 335.5 Q285.3 335.5 285.3 339.5 L285.3 370.0 Z"/><text class="vl ink" x="259.2" y="328.5" text-anchor="middle">10</text><text class="lb ink2" x="259.2" y="389" text-anchor="middle">:15</text><path class="bar" d="M289.3 370.0 L289.3 346.4 Q289.3 342.4 293.3 342.4 L337.7 342.4 Q341.7 342.4 341.7 346.4 L341.7 370.0 Z"/><text class="vl ink" x="315.5" y="335.4" text-anchor="middle">8</text><text class="lb ink2" x="315.5" y="389" text-anchor="middle">:20</text><path class="bar" d="M345.7 370.0 L345.7 342.9 Q345.7 338.9 349.7 338.9 L394.0 338.9 Q398.0 338.9 398.0 342.9 L398.0 370.0 Z"/><text class="vl ink" x="371.8" y="331.9" text-anchor="middle">9</text><text class="lb ink2" x="371.8" y="389" text-anchor="middle">:25</text><path class="bar" d="M402.0 370.0 L402.0 311.9 Q402.0 307.9 406.0 307.9 L450.3 307.9 Q454.3 307.9 454.3 311.9 L454.3 370.0 Z"/><text class="vl ink" x="428.2" y="300.9" text-anchor="middle">18</text><text class="lb ink2" x="428.2" y="389" text-anchor="middle">:30</text><path class="bar" d="M458.3 370.0 L458.3 229.1 Q458.3 225.1 462.3 225.1 L506.7 225.1 Q510.7 225.1 510.7 229.1 L510.7 370.0 Z"/><text class="vl ink" x="484.5" y="218.1" text-anchor="middle">42</text><text class="lb ink2" x="484.5" y="389" text-anchor="middle">:35</text><path class="bar" d="M514.7 370.0 L514.7 167.0 Q514.7 163.0 518.7 163.0 L563.0 163.0 Q567.0 163.0 567.0 167.0 L567.0 370.0 Z"/><text class="vl ink" x="540.8" y="156.0" text-anchor="middle">60</text><text class="lb ink2" x="540.8" y="389" text-anchor="middle">:40</text><path class="bar" d="M571.0 370.0 L571.0 280.9 Q571.0 276.9 575.0 276.9 L619.3 276.9 Q623.3 276.9 623.3 280.9 L623.3 370.0 Z"/><text class="vl ink" x="597.2" y="269.9" text-anchor="middle">27</text><text class="lb ink2" x="597.2" y="389" text-anchor="middle">:45</text><path class="bar" d="M627.3 370.0 L627.3 204.9 Q627.3 200.9 631.3 200.9 L675.7 200.9 Q679.7 200.9 679.7 204.9 L679.7 370.0 Z"/><text class="vl ink" x="653.5" y="193.9" text-anchor="middle">49</text><text class="lb ink2" x="653.5" y="389" text-anchor="middle">:50</text><path class="bar" d="M683.7 370.0 L683.7 270.5 Q683.7 266.5 687.7 266.5 L732.0 266.5 Q736.0 266.5 736.0 270.5 L736.0 370.0 Z"/><text class="vl ink" x="709.8" y="259.5" text-anchor="middle">30</text><text class="lb ink2" x="709.8" y="389" text-anchor="middle">:55</text><line class="axis" x1="62" y1="370" x2="738" y2="370"/><text class="lb ink2" x="400" y="412" text-anchor="middle">起動時刻の分（UTC）— 各バーは 5 分幅</text><text class="lb ink2" x="34" y="80">実行回数</text><text class="lb ink2" x="34" y="438">指定した :23 の直後（:23-:30）に起動したのは 358 件中 11 件。山は :05-:10 と :40-:45 に立つ</text></svg>